<mxfile host="app.diagrams.net" agent="Mozilla/5.0 (Windows NT 10.0; Win64; x64) AppleWebKit/537.36 (KHTML, like Gecko) Chrome/131.0.0.0 Safari/537.36" version="26.0.10" pages="3">
  <diagram name="Page-1" id="NCA2lrX_8zRnajr7cvKP">
    <mxGraphModel dx="1732" dy="1537" grid="0" gridSize="10" guides="1" tooltips="1" connect="1" arrows="1" fold="1" page="0" pageScale="1" pageWidth="850" pageHeight="1100" math="0" shadow="0">
      <root>
        <mxCell id="0" />
        <mxCell id="1" parent="0" />
        <mxCell id="JWkLuTIoWG5DY1U1DuRh-2" value="" style="rounded=0;whiteSpace=wrap;html=1;" vertex="1" parent="1">
          <mxGeometry x="20" y="-34" width="274.23" height="310" as="geometry" />
        </mxCell>
        <mxCell id="JWkLuTIoWG5DY1U1DuRh-3" value="" style="rounded=1;whiteSpace=wrap;html=1;" vertex="1" parent="1">
          <mxGeometry x="34" y="-9" width="157" height="72" as="geometry" />
        </mxCell>
        <mxCell id="JWkLuTIoWG5DY1U1DuRh-4" value="Pyritään ratkaisemaan/optimoimaan ongelma&amp;nbsp;" style="text;html=1;align=left;verticalAlign=top;whiteSpace=wrap;rounded=0;fontSize=16;" vertex="1" parent="1">
          <mxGeometry x="-177" y="-103" width="239" height="69" as="geometry" />
        </mxCell>
        <mxCell id="JWkLuTIoWG5DY1U1DuRh-5" value="Lataa python tai excel tiedosto, tai kirjoita ongelma tekstikenttään" style="text;html=1;align=left;verticalAlign=top;whiteSpace=wrap;rounded=0;fontSize=13;" vertex="1" parent="1">
          <mxGeometry x="44" width="140" height="51" as="geometry" />
        </mxCell>
        <mxCell id="JWkLuTIoWG5DY1U1DuRh-6" value="" style="rounded=0;whiteSpace=wrap;html=1;" vertex="1" parent="1">
          <mxGeometry x="20" y="235" width="274" height="41" as="geometry" />
        </mxCell>
        <mxCell id="JWkLuTIoWG5DY1U1DuRh-7" value="" style="triangle;whiteSpace=wrap;html=1;" vertex="1" parent="1">
          <mxGeometry x="259" y="243.5" width="18" height="24" as="geometry" />
        </mxCell>
        <mxCell id="JWkLuTIoWG5DY1U1DuRh-8" value="Kirjoita tähän" style="text;html=1;align=center;verticalAlign=middle;whiteSpace=wrap;rounded=0;fontSize=16;" vertex="1" parent="1">
          <mxGeometry x="34" y="240.5" width="142" height="30" as="geometry" />
        </mxCell>
        <mxCell id="JWkLuTIoWG5DY1U1DuRh-9" value="" style="shape=image;html=1;verticalAlign=top;verticalLabelPosition=bottom;labelBackgroundColor=#ffffff;imageAspect=0;aspect=fixed;image=https://cdn1.iconfinder.com/data/icons/systemui/21/file_upload-128.png" vertex="1" parent="1">
          <mxGeometry x="200.25" width="57.5" height="57.5" as="geometry" />
        </mxCell>
        <mxCell id="JWkLuTIoWG5DY1U1DuRh-10" value="" style="shape=flexArrow;endArrow=classic;html=1;rounded=0;fontSize=12;startSize=8;endSize=8;curved=1;" edge="1" parent="1">
          <mxGeometry width="50" height="50" relative="1" as="geometry">
            <mxPoint x="162" y="297" as="sourcePoint" />
            <mxPoint x="162" y="354" as="targetPoint" />
          </mxGeometry>
        </mxCell>
        <mxCell id="JWkLuTIoWG5DY1U1DuRh-11" value="" style="ellipse;whiteSpace=wrap;html=1;aspect=fixed;" vertex="1" parent="1">
          <mxGeometry x="123.5" y="367" width="80" height="80" as="geometry" />
        </mxCell>
        <mxCell id="JWkLuTIoWG5DY1U1DuRh-12" value="Agentti analysoi annetun tehtävän" style="text;html=1;align=center;verticalAlign=middle;whiteSpace=wrap;rounded=0;fontSize=16;" vertex="1" parent="1">
          <mxGeometry x="-28.5" y="340" width="131" height="60.5" as="geometry" />
        </mxCell>
        <mxCell id="JWkLuTIoWG5DY1U1DuRh-13" value="" style="shape=flexArrow;endArrow=classic;html=1;rounded=0;fontSize=12;startSize=8;endSize=8;curved=1;entryX=1;entryY=0.5;entryDx=0;entryDy=0;" edge="1" parent="1" target="JWkLuTIoWG5DY1U1DuRh-15">
          <mxGeometry width="50" height="50" relative="1" as="geometry">
            <mxPoint x="222" y="407" as="sourcePoint" />
            <mxPoint x="311" y="124" as="targetPoint" />
            <Array as="points">
              <mxPoint x="384" y="407" />
              <mxPoint x="384" y="172" />
            </Array>
          </mxGeometry>
        </mxCell>
        <mxCell id="JWkLuTIoWG5DY1U1DuRh-14" value="Tilausmäärät.xlsx&lt;div&gt;Materiaalit.xlsx&lt;/div&gt;" style="rounded=1;whiteSpace=wrap;html=1;align=left;verticalAlign=top;" vertex="1" parent="1">
          <mxGeometry x="179" y="75" width="106" height="47" as="geometry" />
        </mxCell>
        <mxCell id="JWkLuTIoWG5DY1U1DuRh-15" value="Ratkotaan tilaus niin että materiaalia menee hukkaan mahdollisimman vähän optimointikirjastoa käyttäen" style="rounded=1;whiteSpace=wrap;html=1;align=left;verticalAlign=top;" vertex="1" parent="1">
          <mxGeometry x="30.5" y="134" width="149" height="81" as="geometry" />
        </mxCell>
        <mxCell id="JWkLuTIoWG5DY1U1DuRh-16" value="" style="shape=flexArrow;endArrow=classic;html=1;rounded=0;fontSize=12;startSize=8;endSize=8;curved=1;" edge="1" parent="1">
          <mxGeometry width="50" height="50" relative="1" as="geometry">
            <mxPoint x="163" y="462" as="sourcePoint" />
            <mxPoint x="163" y="519" as="targetPoint" />
          </mxGeometry>
        </mxCell>
        <mxCell id="JWkLuTIoWG5DY1U1DuRh-17" value="" style="ellipse;whiteSpace=wrap;html=1;aspect=fixed;" vertex="1" parent="1">
          <mxGeometry x="120.25" y="527" width="80" height="80" as="geometry" />
        </mxCell>
        <mxCell id="JWkLuTIoWG5DY1U1DuRh-18" value="Agentti generoi optimointikoodin" style="text;html=1;align=center;verticalAlign=middle;whiteSpace=wrap;rounded=0;fontSize=16;" vertex="1" parent="1">
          <mxGeometry x="2" y="554" width="60" height="30" as="geometry" />
        </mxCell>
        <mxCell id="JWkLuTIoWG5DY1U1DuRh-19" value="" style="ellipse;whiteSpace=wrap;html=1;aspect=fixed;" vertex="1" parent="1">
          <mxGeometry x="120.25" y="678" width="80" height="80" as="geometry" />
        </mxCell>
        <mxCell id="JWkLuTIoWG5DY1U1DuRh-20" value="" style="shape=flexArrow;endArrow=classic;html=1;rounded=0;fontSize=12;startSize=8;endSize=8;curved=1;" edge="1" parent="1">
          <mxGeometry width="50" height="50" relative="1" as="geometry">
            <mxPoint x="159.75" y="611" as="sourcePoint" />
            <mxPoint x="159.75" y="668" as="targetPoint" />
          </mxGeometry>
        </mxCell>
        <mxCell id="JWkLuTIoWG5DY1U1DuRh-21" value="Koodin perusteella tehdään docker ympäristö" style="text;html=1;align=center;verticalAlign=middle;whiteSpace=wrap;rounded=0;fontSize=16;" vertex="1" parent="1">
          <mxGeometry x="-38.5" y="691" width="141" height="63" as="geometry" />
        </mxCell>
        <mxCell id="JWkLuTIoWG5DY1U1DuRh-22" value="" style="shape=flexArrow;endArrow=classic;html=1;rounded=0;fontSize=12;startSize=8;endSize=8;curved=1;" edge="1" parent="1">
          <mxGeometry width="50" height="50" relative="1" as="geometry">
            <mxPoint x="159.75" y="771" as="sourcePoint" />
            <mxPoint x="159.75" y="828" as="targetPoint" />
          </mxGeometry>
        </mxCell>
        <mxCell id="JWkLuTIoWG5DY1U1DuRh-23" value="" style="ellipse;whiteSpace=wrap;html=1;aspect=fixed;" vertex="1" parent="1">
          <mxGeometry x="120.25" y="832" width="80" height="80" as="geometry" />
        </mxCell>
        <mxCell id="JWkLuTIoWG5DY1U1DuRh-24" value="Koodi suoritetaan" style="text;html=1;align=center;verticalAlign=middle;whiteSpace=wrap;rounded=0;fontSize=16;" vertex="1" parent="1">
          <mxGeometry x="-10" y="846.5" width="84" height="51" as="geometry" />
        </mxCell>
        <mxCell id="JWkLuTIoWG5DY1U1DuRh-25" value="" style="shape=flexArrow;endArrow=classic;html=1;rounded=0;fontSize=12;startSize=8;endSize=8;curved=1;" edge="1" parent="1">
          <mxGeometry width="50" height="50" relative="1" as="geometry">
            <mxPoint x="212" y="900" as="sourcePoint" />
            <mxPoint x="281" y="900" as="targetPoint" />
          </mxGeometry>
        </mxCell>
        <mxCell id="JWkLuTIoWG5DY1U1DuRh-26" value="" style="ellipse;whiteSpace=wrap;html=1;aspect=fixed;" vertex="1" parent="1">
          <mxGeometry x="301" y="832" width="80" height="80" as="geometry" />
        </mxCell>
        <mxCell id="JWkLuTIoWG5DY1U1DuRh-27" value="Koodia pyritään optimoimaan (esim niin että materiaalia menee hukkaan vähemmän)" style="text;html=1;align=center;verticalAlign=middle;whiteSpace=wrap;rounded=0;fontSize=16;" vertex="1" parent="1">
          <mxGeometry x="398" y="832" width="148" height="92" as="geometry" />
        </mxCell>
        <mxCell id="JWkLuTIoWG5DY1U1DuRh-28" value="" style="shape=flexArrow;endArrow=classic;html=1;rounded=0;fontSize=12;startSize=8;endSize=8;curved=1;" edge="1" parent="1">
          <mxGeometry width="50" height="50" relative="1" as="geometry">
            <mxPoint x="277" y="869" as="sourcePoint" />
            <mxPoint x="207.23000000000002" y="869" as="targetPoint" />
          </mxGeometry>
        </mxCell>
        <mxCell id="JWkLuTIoWG5DY1U1DuRh-29" value="" style="shape=flexArrow;endArrow=classic;html=1;rounded=0;fontSize=12;startSize=8;endSize=8;curved=1;" edge="1" parent="1">
          <mxGeometry width="50" height="50" relative="1" as="geometry">
            <mxPoint x="159.63" y="930" as="sourcePoint" />
            <mxPoint x="159.63" y="987" as="targetPoint" />
          </mxGeometry>
        </mxCell>
        <mxCell id="JWkLuTIoWG5DY1U1DuRh-30" value="" style="ellipse;whiteSpace=wrap;html=1;aspect=fixed;" vertex="1" parent="1">
          <mxGeometry x="117" y="996" width="80" height="80" as="geometry" />
        </mxCell>
        <mxCell id="JWkLuTIoWG5DY1U1DuRh-31" value="Tehdään loppuraportti&lt;div&gt;(koodit ja taulukot)&lt;/div&gt;" style="text;html=1;align=center;verticalAlign=middle;whiteSpace=wrap;rounded=0;fontSize=16;" vertex="1" parent="1">
          <mxGeometry x="-10" y="1006" width="84" height="51" as="geometry" />
        </mxCell>
        <mxCell id="JWkLuTIoWG5DY1U1DuRh-32" value="" style="shape=flexArrow;endArrow=classic;html=1;rounded=0;fontSize=12;startSize=8;endSize=8;curved=1;" edge="1" parent="1">
          <mxGeometry width="50" height="50" relative="1" as="geometry">
            <mxPoint x="-21" y="1041" as="sourcePoint" />
            <mxPoint x="7" y="215" as="targetPoint" />
            <Array as="points">
              <mxPoint x="-68" y="1041" />
              <mxPoint x="-68" y="215" />
            </Array>
          </mxGeometry>
        </mxCell>
        <mxCell id="JWkLuTIoWG5DY1U1DuRh-33" value="Miten se kannattaisi ratkaista?" style="text;html=1;align=center;verticalAlign=middle;whiteSpace=wrap;rounded=0;fontSize=16;" vertex="1" parent="1">
          <mxGeometry x="-33.5" y="407" width="131" height="60.5" as="geometry" />
        </mxCell>
      </root>
    </mxGraphModel>
  </diagram>
  <diagram name="overall_picture" id="puIode_SiBZ-SrOKtRgm">
    <mxGraphModel dx="1463" dy="1142" grid="0" gridSize="10" guides="1" tooltips="1" connect="1" arrows="1" fold="1" page="0" pageScale="1" pageWidth="850" pageHeight="1100" math="0" shadow="0">
      <root>
        <mxCell id="0" />
        <mxCell id="1" parent="0" />
        <mxCell id="kgE-gyNqTtsBXKddia5f-1" value="" style="rounded=1;whiteSpace=wrap;html=1;fillColor=#dae8fc;strokeColor=#6c8ebf;" vertex="1" parent="1">
          <mxGeometry x="89" y="-226" width="342" height="282" as="geometry" />
        </mxCell>
        <mxCell id="iayLDvK6vQaBdU0EmfGG-19" value="" style="shape=parallelogram;perimeter=parallelogramPerimeter;whiteSpace=wrap;html=1;fixedSize=1;fillColor=#ffe6cc;strokeColor=#d79b00;" parent="1" vertex="1">
          <mxGeometry x="104" y="-180" width="312" height="110" as="geometry" />
        </mxCell>
        <mxCell id="iayLDvK6vQaBdU0EmfGG-1" value="&lt;div&gt;Meeting bot&lt;/div&gt;" style="rounded=1;whiteSpace=wrap;html=1;" parent="1" vertex="1">
          <mxGeometry x="-270" y="8" width="120" height="60" as="geometry" />
        </mxCell>
        <mxCell id="iayLDvK6vQaBdU0EmfGG-3" value="Context manager&lt;br&gt;&lt;div&gt;&lt;br&gt;&lt;/div&gt;" style="rounded=1;whiteSpace=wrap;html=1;" parent="1" vertex="1">
          <mxGeometry x="-52" y="8" width="120" height="60" as="geometry" />
        </mxCell>
        <mxCell id="iayLDvK6vQaBdU0EmfGG-5" value="Code generator" style="rounded=1;whiteSpace=wrap;html=1;" parent="1" vertex="1">
          <mxGeometry x="259" y="-10" width="120" height="60" as="geometry" />
        </mxCell>
        <mxCell id="iayLDvK6vQaBdU0EmfGG-7" value="" style="endArrow=classic;html=1;rounded=0;fontSize=12;startSize=8;endSize=8;curved=1;entryX=0;entryY=0.5;entryDx=0;entryDy=0;exitX=1;exitY=0.5;exitDx=0;exitDy=0;startArrow=none;startFill=0;endFill=1;" parent="1" source="iayLDvK6vQaBdU0EmfGG-1" target="iayLDvK6vQaBdU0EmfGG-3" edge="1">
          <mxGeometry width="50" height="50" relative="1" as="geometry">
            <mxPoint x="-19" y="20" as="sourcePoint" />
            <mxPoint x="31" y="19" as="targetPoint" />
          </mxGeometry>
        </mxCell>
        <mxCell id="iayLDvK6vQaBdU0EmfGG-9" value="Container" style="rounded=0;whiteSpace=wrap;html=1;" parent="1" vertex="1">
          <mxGeometry x="270" y="-153" width="120" height="60" as="geometry" />
        </mxCell>
        <mxCell id="iayLDvK6vQaBdU0EmfGG-10" value="" style="endArrow=classic;html=1;rounded=0;fontSize=12;startSize=8;endSize=8;curved=1;entryX=0.467;entryY=0.967;entryDx=0;entryDy=0;entryPerimeter=0;" parent="1" target="iayLDvK6vQaBdU0EmfGG-9" edge="1">
          <mxGeometry width="50" height="50" relative="1" as="geometry">
            <mxPoint x="313" y="-10" as="sourcePoint" />
            <mxPoint x="313" y="-86" as="targetPoint" />
          </mxGeometry>
        </mxCell>
        <mxCell id="iayLDvK6vQaBdU0EmfGG-11" value="Container&lt;div&gt;(UI)&lt;/div&gt;" style="rounded=0;whiteSpace=wrap;html=1;" parent="1" vertex="1">
          <mxGeometry x="133" y="-153" width="120" height="60" as="geometry" />
        </mxCell>
        <mxCell id="iayLDvK6vQaBdU0EmfGG-12" value="" style="endArrow=classic;html=1;rounded=0;fontSize=12;startSize=8;endSize=8;curved=1;entryX=0.6;entryY=1.017;entryDx=0;entryDy=0;entryPerimeter=0;exitX=0.25;exitY=0;exitDx=0;exitDy=0;" parent="1" source="iayLDvK6vQaBdU0EmfGG-5" target="iayLDvK6vQaBdU0EmfGG-11" edge="1">
          <mxGeometry width="50" height="50" relative="1" as="geometry">
            <mxPoint x="323" as="sourcePoint" />
            <mxPoint x="323" y="-76" as="targetPoint" />
          </mxGeometry>
        </mxCell>
        <mxCell id="iayLDvK6vQaBdU0EmfGG-17" value="" style="endArrow=classic;html=1;rounded=0;fontSize=12;startSize=8;endSize=8;curved=1;" parent="1" edge="1">
          <mxGeometry width="50" height="50" relative="1" as="geometry">
            <mxPoint x="257" y="-123.12" as="sourcePoint" />
            <mxPoint x="240" y="-123" as="targetPoint" />
          </mxGeometry>
        </mxCell>
        <mxCell id="iayLDvK6vQaBdU0EmfGG-54" value="api" style="text;html=1;align=center;verticalAlign=middle;resizable=0;points=[];autosize=1;strokeColor=none;fillColor=none;fontSize=16;" parent="1" vertex="1">
          <mxGeometry x="-116" y="7" width="39" height="31" as="geometry" />
        </mxCell>
        <mxCell id="iayLDvK6vQaBdU0EmfGG-55" value="api" style="text;html=1;align=center;verticalAlign=middle;resizable=0;points=[];autosize=1;strokeColor=none;fillColor=none;fontSize=16;" parent="1" vertex="1">
          <mxGeometry x="117" y="56" width="39" height="31" as="geometry" />
        </mxCell>
        <mxCell id="iayLDvK6vQaBdU0EmfGG-58" value="manager service" style="rounded=1;whiteSpace=wrap;html=1;" parent="1" vertex="1">
          <mxGeometry x="-52" y="98" width="120" height="60" as="geometry" />
        </mxCell>
        <mxCell id="iayLDvK6vQaBdU0EmfGG-59" value="" style="endArrow=classic;html=1;rounded=0;fontSize=12;startSize=8;endSize=8;curved=1;entryX=0;entryY=0.25;entryDx=0;entryDy=0;exitX=0.75;exitY=1;exitDx=0;exitDy=0;startArrow=none;startFill=0;endFill=1;" parent="1" source="iayLDvK6vQaBdU0EmfGG-1" target="iayLDvK6vQaBdU0EmfGG-58" edge="1">
          <mxGeometry width="50" height="50" relative="1" as="geometry">
            <mxPoint x="-153" y="83" as="sourcePoint" />
            <mxPoint x="-55" y="83" as="targetPoint" />
          </mxGeometry>
        </mxCell>
        <mxCell id="iayLDvK6vQaBdU0EmfGG-60" value="" style="endArrow=none;html=1;rounded=0;fontSize=12;startSize=8;endSize=8;curved=1;entryX=0.5;entryY=0;entryDx=0;entryDy=0;startArrow=classic;startFill=1;endFill=0;exitX=0.5;exitY=1;exitDx=0;exitDy=0;" parent="1" source="iayLDvK6vQaBdU0EmfGG-3" target="iayLDvK6vQaBdU0EmfGG-58" edge="1">
          <mxGeometry width="50" height="50" relative="1" as="geometry">
            <mxPoint x="125" y="62" as="sourcePoint" />
            <mxPoint x="215" y="80" as="targetPoint" />
          </mxGeometry>
        </mxCell>
        <mxCell id="iayLDvK6vQaBdU0EmfGG-61" value="" style="endArrow=classic;html=1;rounded=0;fontSize=12;startSize=8;endSize=8;curved=1;entryX=0;entryY=0.5;entryDx=0;entryDy=0;startArrow=none;startFill=0;endFill=1;exitX=1;exitY=0.5;exitDx=0;exitDy=0;" parent="1" source="iayLDvK6vQaBdU0EmfGG-58" target="iayLDvK6vQaBdU0EmfGG-5" edge="1">
          <mxGeometry width="50" height="50" relative="1" as="geometry">
            <mxPoint x="83" y="136" as="sourcePoint" />
            <mxPoint x="153" y="68" as="targetPoint" />
          </mxGeometry>
        </mxCell>
        <mxCell id="iayLDvK6vQaBdU0EmfGG-62" value="" style="endArrow=classic;html=1;rounded=0;fontSize=12;startSize=8;endSize=8;curved=1;startArrow=none;startFill=0;endFill=1;dashed=1;exitX=0;exitY=0.75;exitDx=0;exitDy=0;" parent="1" edge="1" source="iayLDvK6vQaBdU0EmfGG-5">
          <mxGeometry width="50" height="50" relative="1" as="geometry">
            <mxPoint x="159" y="75" as="sourcePoint" />
            <mxPoint x="74" y="134" as="targetPoint" />
          </mxGeometry>
        </mxCell>
        <mxCell id="iayLDvK6vQaBdU0EmfGG-64" value="Generated software" style="text;html=1;align=center;verticalAlign=middle;whiteSpace=wrap;rounded=0;fontSize=10;" parent="1" vertex="1">
          <mxGeometry x="130" y="-180" width="60" height="30" as="geometry" />
        </mxCell>
        <mxCell id="iayLDvK6vQaBdU0EmfGG-66" value="UI" style="rounded=1;whiteSpace=wrap;html=1;" parent="1" vertex="1">
          <mxGeometry x="-17" y="190" width="54" height="16" as="geometry" />
        </mxCell>
        <mxCell id="iayLDvK6vQaBdU0EmfGG-67" value="" style="endArrow=classic;html=1;rounded=0;fontSize=12;startSize=8;endSize=8;curved=1;startArrow=none;startFill=0;endFill=1;dashed=1;" parent="1" edge="1">
          <mxGeometry width="50" height="50" relative="1" as="geometry">
            <mxPoint x="10.310000000000002" y="161" as="sourcePoint" />
            <mxPoint x="10.310000000000002" y="188" as="targetPoint" />
          </mxGeometry>
        </mxCell>
        <mxCell id="iayLDvK6vQaBdU0EmfGG-70" value="" style="endArrow=none;html=1;rounded=0;fontSize=12;startSize=8;endSize=8;curved=1;entryX=0;entryY=0.5;entryDx=0;entryDy=0;startArrow=classic;startFill=1;endFill=0;exitX=0.5;exitY=1;exitDx=0;exitDy=0;" parent="1" source="iayLDvK6vQaBdU0EmfGG-1" target="iayLDvK6vQaBdU0EmfGG-58" edge="1">
          <mxGeometry width="50" height="50" relative="1" as="geometry">
            <mxPoint x="-171" y="68" as="sourcePoint" />
            <mxPoint x="-171" y="98" as="targetPoint" />
          </mxGeometry>
        </mxCell>
        <mxCell id="kgE-gyNqTtsBXKddia5f-2" value="This repo is this part&amp;nbsp; of timeless project" style="text;html=1;align=center;verticalAlign=middle;whiteSpace=wrap;rounded=0;" vertex="1" parent="1">
          <mxGeometry x="124" y="-219" width="124" height="34" as="geometry" />
        </mxCell>
      </root>
    </mxGraphModel>
  </diagram>
  <diagram name="timeless_gradio_ui" id="ixjWs46aenANTTculGmD">
    <mxGraphModel dx="1919" dy="1460" grid="0" gridSize="10" guides="1" tooltips="1" connect="1" arrows="1" fold="1" page="0" pageScale="1" pageWidth="850" pageHeight="1100" math="0" shadow="0">
      <root>
        <mxCell id="0" />
        <mxCell id="1" parent="0" />
        <mxCell id="M1wL5rDWJFZCn1JbvD7y-43" value="" style="rounded=1;whiteSpace=wrap;html=1;fillColor=#f5f5f5;fontColor=#333333;strokeColor=#666666;" parent="1" vertex="1">
          <mxGeometry x="765" y="205" width="143" height="259" as="geometry" />
        </mxCell>
        <mxCell id="M1wL5rDWJFZCn1JbvD7y-58" style="edgeStyle=none;curved=1;rounded=0;orthogonalLoop=1;jettySize=auto;html=1;exitX=1;exitY=0.5;exitDx=0;exitDy=0;fontSize=12;startSize=8;endSize=8;" parent="1" source="M1wL5rDWJFZCn1JbvD7y-1" target="M1wL5rDWJFZCn1JbvD7y-37" edge="1">
          <mxGeometry relative="1" as="geometry" />
        </mxCell>
        <mxCell id="M1wL5rDWJFZCn1JbvD7y-1" value="" style="rounded=1;whiteSpace=wrap;html=1;" parent="1" vertex="1">
          <mxGeometry x="20" y="214" width="120" height="60" as="geometry" />
        </mxCell>
        <mxCell id="M1wL5rDWJFZCn1JbvD7y-2" value="" style="endArrow=classic;html=1;rounded=0;fontSize=12;startSize=8;endSize=8;curved=1;entryX=0;entryY=0.5;entryDx=0;entryDy=0;" parent="1" target="M1wL5rDWJFZCn1JbvD7y-1" edge="1">
          <mxGeometry width="50" height="50" relative="1" as="geometry">
            <mxPoint x="-60" y="244" as="sourcePoint" />
            <mxPoint x="-34" y="248" as="targetPoint" />
          </mxGeometry>
        </mxCell>
        <mxCell id="M1wL5rDWJFZCn1JbvD7y-5" value="HTTP POST" style="text;html=1;align=center;verticalAlign=middle;whiteSpace=wrap;rounded=0;" parent="1" vertex="1">
          <mxGeometry x="-59" y="212" width="58" height="30" as="geometry" />
        </mxCell>
        <mxCell id="M1wL5rDWJFZCn1JbvD7y-6" value="Generate code files based on input (prompt)" style="text;html=1;align=center;verticalAlign=middle;whiteSpace=wrap;rounded=0;" parent="1" vertex="1">
          <mxGeometry x="26" y="216" width="110" height="55" as="geometry" />
        </mxCell>
        <mxCell id="M1wL5rDWJFZCn1JbvD7y-56" style="edgeStyle=none;curved=1;rounded=0;orthogonalLoop=1;jettySize=auto;html=1;exitX=1;exitY=0.5;exitDx=0;exitDy=0;entryX=0;entryY=0.5;entryDx=0;entryDy=0;fontSize=12;startSize=8;endSize=8;" parent="1" source="M1wL5rDWJFZCn1JbvD7y-7" target="M1wL5rDWJFZCn1JbvD7y-10" edge="1">
          <mxGeometry relative="1" as="geometry" />
        </mxCell>
        <mxCell id="M1wL5rDWJFZCn1JbvD7y-7" value="" style="rounded=1;whiteSpace=wrap;html=1;" parent="1" vertex="1">
          <mxGeometry x="319" y="215" width="120" height="60" as="geometry" />
        </mxCell>
        <mxCell id="M1wL5rDWJFZCn1JbvD7y-8" value="Generate&lt;div&gt;docker files based on code files&lt;/div&gt;" style="text;html=1;align=center;verticalAlign=middle;whiteSpace=wrap;rounded=0;" parent="1" vertex="1">
          <mxGeometry x="324" y="217" width="110" height="58" as="geometry" />
        </mxCell>
        <mxCell id="M1wL5rDWJFZCn1JbvD7y-10" value="" style="rounded=1;whiteSpace=wrap;html=1;" parent="1" vertex="1">
          <mxGeometry x="515" y="216" width="120" height="60" as="geometry" />
        </mxCell>
        <mxCell id="M1wL5rDWJFZCn1JbvD7y-59" style="edgeStyle=none;curved=1;rounded=0;orthogonalLoop=1;jettySize=auto;html=1;entryX=0.5;entryY=1;entryDx=0;entryDy=0;fontSize=12;startSize=8;endSize=8;" parent="1" source="M1wL5rDWJFZCn1JbvD7y-11" target="M1wL5rDWJFZCn1JbvD7y-49" edge="1">
          <mxGeometry relative="1" as="geometry" />
        </mxCell>
        <mxCell id="M1wL5rDWJFZCn1JbvD7y-74" style="edgeStyle=none;curved=0;rounded=0;orthogonalLoop=1;jettySize=auto;html=1;exitX=0;exitY=0;exitDx=0;exitDy=0;entryX=0.5;entryY=1;entryDx=0;entryDy=0;fontSize=12;startSize=8;endSize=8;dashed=1;dashPattern=8 8;" parent="1" source="M1wL5rDWJFZCn1JbvD7y-11" target="M1wL5rDWJFZCn1JbvD7y-68" edge="1">
          <mxGeometry relative="1" as="geometry">
            <Array as="points">
              <mxPoint x="388" y="131" />
            </Array>
          </mxGeometry>
        </mxCell>
        <mxCell id="M1wL5rDWJFZCn1JbvD7y-11" value="Execute code via Docker" style="text;html=1;align=center;verticalAlign=middle;whiteSpace=wrap;rounded=0;" parent="1" vertex="1">
          <mxGeometry x="521" y="218" width="110" height="55" as="geometry" />
        </mxCell>
        <mxCell id="M1wL5rDWJFZCn1JbvD7y-13" value="" style="rounded=1;whiteSpace=wrap;html=1;" parent="1" vertex="1">
          <mxGeometry x="516" y="9" width="120" height="60" as="geometry" />
        </mxCell>
        <mxCell id="M1wL5rDWJFZCn1JbvD7y-70" style="edgeStyle=none;curved=1;rounded=0;orthogonalLoop=1;jettySize=auto;html=1;entryX=0.5;entryY=1;entryDx=0;entryDy=0;fontSize=12;startSize=8;endSize=8;" parent="1" source="M1wL5rDWJFZCn1JbvD7y-14" target="M1wL5rDWJFZCn1JbvD7y-69" edge="1">
          <mxGeometry relative="1" as="geometry" />
        </mxCell>
        <mxCell id="M1wL5rDWJFZCn1JbvD7y-14" value="Generate README &amp;amp; DEVELOPER files" style="text;html=1;align=center;verticalAlign=middle;whiteSpace=wrap;rounded=0;" parent="1" vertex="1">
          <mxGeometry x="522" y="11" width="110" height="55" as="geometry" />
        </mxCell>
        <mxCell id="M1wL5rDWJFZCn1JbvD7y-64" style="edgeStyle=none;curved=0;rounded=0;orthogonalLoop=1;jettySize=auto;html=1;exitX=0;exitY=0.75;exitDx=0;exitDy=0;entryX=0.75;entryY=1;entryDx=0;entryDy=0;fontSize=12;startSize=8;endSize=8;" parent="1" source="M1wL5rDWJFZCn1JbvD7y-25" target="M1wL5rDWJFZCn1JbvD7y-11" edge="1">
          <mxGeometry relative="1" as="geometry">
            <Array as="points">
              <mxPoint x="669" y="325" />
            </Array>
          </mxGeometry>
        </mxCell>
        <mxCell id="M1wL5rDWJFZCn1JbvD7y-25" value="Code execution error" style="rounded=1;whiteSpace=wrap;html=1;" parent="1" vertex="1">
          <mxGeometry x="777" y="216" width="120" height="60" as="geometry" />
        </mxCell>
        <mxCell id="M1wL5rDWJFZCn1JbvD7y-27" value="" style="rounded=1;whiteSpace=wrap;html=1;" parent="1" vertex="1">
          <mxGeometry x="776" y="306" width="120" height="60" as="geometry" />
        </mxCell>
        <mxCell id="M1wL5rDWJFZCn1JbvD7y-65" style="edgeStyle=none;curved=0;rounded=0;orthogonalLoop=1;jettySize=auto;html=1;entryX=0.5;entryY=1;entryDx=0;entryDy=0;fontSize=12;startSize=8;endSize=8;exitX=0;exitY=0.533;exitDx=0;exitDy=0;exitPerimeter=0;" parent="1" source="M1wL5rDWJFZCn1JbvD7y-27" target="M1wL5rDWJFZCn1JbvD7y-11" edge="1">
          <mxGeometry relative="1" as="geometry">
            <mxPoint x="773" y="338" as="sourcePoint" />
            <Array as="points">
              <mxPoint x="574" y="338" />
            </Array>
          </mxGeometry>
        </mxCell>
        <mxCell id="M1wL5rDWJFZCn1JbvD7y-28" value="Docker configuration error" style="text;html=1;align=center;verticalAlign=middle;whiteSpace=wrap;rounded=0;" parent="1" vertex="1">
          <mxGeometry x="784" y="308" width="110" height="55" as="geometry" />
        </mxCell>
        <mxCell id="M1wL5rDWJFZCn1JbvD7y-33" value="" style="rounded=1;whiteSpace=wrap;html=1;" parent="1" vertex="1">
          <mxGeometry x="776" y="394" width="120" height="60" as="geometry" />
        </mxCell>
        <mxCell id="M1wL5rDWJFZCn1JbvD7y-34" value="Unexpected error" style="text;html=1;align=center;verticalAlign=middle;whiteSpace=wrap;rounded=0;" parent="1" vertex="1">
          <mxGeometry x="784" y="396" width="110" height="55" as="geometry" />
        </mxCell>
        <mxCell id="M1wL5rDWJFZCn1JbvD7y-57" style="edgeStyle=none;curved=1;rounded=0;orthogonalLoop=1;jettySize=auto;html=1;fontSize=12;startSize=8;endSize=8;exitX=1;exitY=0.5;exitDx=0;exitDy=0;entryX=0;entryY=0.5;entryDx=0;entryDy=0;" parent="1" source="M1wL5rDWJFZCn1JbvD7y-37" target="M1wL5rDWJFZCn1JbvD7y-7" edge="1">
          <mxGeometry relative="1" as="geometry">
            <mxPoint x="265" y="251" as="sourcePoint" />
            <mxPoint x="292" y="256" as="targetPoint" />
          </mxGeometry>
        </mxCell>
        <mxCell id="M1wL5rDWJFZCn1JbvD7y-37" value="Save&lt;div&gt;files&lt;/div&gt;" style="rounded=1;whiteSpace=wrap;html=1;" parent="1" vertex="1">
          <mxGeometry x="188" y="214" width="62" height="61" as="geometry" />
        </mxCell>
        <mxCell id="M1wL5rDWJFZCn1JbvD7y-39" value="" style="endArrow=classic;html=1;rounded=0;fontSize=12;startSize=8;endSize=8;curved=0;exitX=0;exitY=0.5;exitDx=0;exitDy=0;" parent="1" source="M1wL5rDWJFZCn1JbvD7y-33" edge="1">
          <mxGeometry width="50" height="50" relative="1" as="geometry">
            <mxPoint x="759" y="423" as="sourcePoint" />
            <mxPoint x="220" y="289" as="targetPoint" />
            <Array as="points">
              <mxPoint x="220" y="425" />
            </Array>
          </mxGeometry>
        </mxCell>
        <mxCell id="M1wL5rDWJFZCn1JbvD7y-42" value="Generate code files again" style="text;html=1;align=center;verticalAlign=middle;whiteSpace=wrap;rounded=0;fontSize=12;" parent="1" vertex="1">
          <mxGeometry x="428" y="392" width="116" height="30" as="geometry" />
        </mxCell>
        <mxCell id="M1wL5rDWJFZCn1JbvD7y-44" value="Error handling during execution" style="text;html=1;align=center;verticalAlign=middle;whiteSpace=wrap;rounded=0;" parent="1" vertex="1">
          <mxGeometry x="777" y="172" width="120" height="30" as="geometry" />
        </mxCell>
        <mxCell id="M1wL5rDWJFZCn1JbvD7y-53" style="edgeStyle=none;curved=1;rounded=0;orthogonalLoop=1;jettySize=auto;html=1;exitX=0.5;exitY=0;exitDx=0;exitDy=0;entryX=0.5;entryY=1;entryDx=0;entryDy=0;fontSize=12;startSize=8;endSize=8;" parent="1" source="M1wL5rDWJFZCn1JbvD7y-49" target="M1wL5rDWJFZCn1JbvD7y-14" edge="1">
          <mxGeometry relative="1" as="geometry" />
        </mxCell>
        <mxCell id="M1wL5rDWJFZCn1JbvD7y-49" value="Delete container" style="rounded=1;whiteSpace=wrap;html=1;" parent="1" vertex="1">
          <mxGeometry x="517" y="108" width="120" height="60" as="geometry" />
        </mxCell>
        <mxCell id="M1wL5rDWJFZCn1JbvD7y-60" value="If success" style="text;html=1;align=center;verticalAlign=middle;whiteSpace=wrap;rounded=0;" parent="1" vertex="1">
          <mxGeometry x="576" y="184" width="60" height="30" as="geometry" />
        </mxCell>
        <mxCell id="M1wL5rDWJFZCn1JbvD7y-62" style="edgeStyle=none;curved=1;rounded=0;orthogonalLoop=1;jettySize=auto;html=1;entryX=0.009;entryY=0.156;entryDx=0;entryDy=0;entryPerimeter=0;fontSize=12;startSize=8;endSize=8;" parent="1" source="M1wL5rDWJFZCn1JbvD7y-10" target="M1wL5rDWJFZCn1JbvD7y-43" edge="1">
          <mxGeometry relative="1" as="geometry" />
        </mxCell>
        <mxCell id="M1wL5rDWJFZCn1JbvD7y-63" value="If error" style="text;html=1;align=center;verticalAlign=middle;whiteSpace=wrap;rounded=0;" parent="1" vertex="1">
          <mxGeometry x="663" y="219" width="60" height="30" as="geometry" />
        </mxCell>
        <mxCell id="M1wL5rDWJFZCn1JbvD7y-66" value="Fix docer files" style="text;html=1;align=center;verticalAlign=middle;whiteSpace=wrap;rounded=0;" parent="1" vertex="1">
          <mxGeometry x="669" y="333" width="80" height="30" as="geometry" />
        </mxCell>
        <mxCell id="M1wL5rDWJFZCn1JbvD7y-67" value="Fix single code file" style="text;html=1;align=center;verticalAlign=middle;whiteSpace=wrap;rounded=0;" parent="1" vertex="1">
          <mxGeometry x="632" y="282" width="80" height="30" as="geometry" />
        </mxCell>
        <mxCell id="M1wL5rDWJFZCn1JbvD7y-73" style="edgeStyle=none;curved=1;rounded=0;orthogonalLoop=1;jettySize=auto;html=1;fontSize=12;startSize=8;endSize=8;dashed=1;" parent="1" source="M1wL5rDWJFZCn1JbvD7y-68" edge="1">
          <mxGeometry relative="1" as="geometry">
            <mxPoint x="-50.686424255371094" y="-47" as="targetPoint" />
          </mxGeometry>
        </mxCell>
        <mxCell id="M1wL5rDWJFZCn1JbvD7y-68" value="END" style="rounded=1;whiteSpace=wrap;html=1;" parent="1" vertex="1">
          <mxGeometry x="330" y="-77" width="120" height="60" as="geometry" />
        </mxCell>
        <mxCell id="M1wL5rDWJFZCn1JbvD7y-71" style="edgeStyle=none;curved=1;rounded=0;orthogonalLoop=1;jettySize=auto;html=1;entryX=1;entryY=0.5;entryDx=0;entryDy=0;fontSize=12;startSize=8;endSize=8;" parent="1" source="M1wL5rDWJFZCn1JbvD7y-69" target="M1wL5rDWJFZCn1JbvD7y-68" edge="1">
          <mxGeometry relative="1" as="geometry" />
        </mxCell>
        <mxCell id="M1wL5rDWJFZCn1JbvD7y-69" value="Create Gradio UI for serving generated files (using Docker)" style="rounded=1;whiteSpace=wrap;html=1;" parent="1" vertex="1">
          <mxGeometry x="517" y="-77" width="120" height="60" as="geometry" />
        </mxCell>
        <mxCell id="M1wL5rDWJFZCn1JbvD7y-72" value="" style="endArrow=none;html=1;rounded=0;fontSize=12;startSize=8;endSize=8;curved=1;dashed=1;dashPattern=1 2;" parent="1" edge="1">
          <mxGeometry width="50" height="50" relative="1" as="geometry">
            <mxPoint x="-3" y="420" as="sourcePoint" />
            <mxPoint x="-3" y="-102" as="targetPoint" />
          </mxGeometry>
        </mxCell>
        <mxCell id="M1wL5rDWJFZCn1JbvD7y-75" value="If iterations &amp;gt;= X" style="text;html=1;align=center;verticalAlign=middle;whiteSpace=wrap;rounded=0;" parent="1" vertex="1">
          <mxGeometry x="393" y="108" width="75" height="39" as="geometry" />
        </mxCell>
        <mxCell id="M1wL5rDWJFZCn1JbvD7y-77" value="Return link to Gradio UI or report error" style="text;html=1;align=center;verticalAlign=middle;whiteSpace=wrap;rounded=0;" parent="1" vertex="1">
          <mxGeometry x="136" y="-77" width="133" height="30" as="geometry" />
        </mxCell>
        <mxCell id="M1wL5rDWJFZCn1JbvD7y-78" value="Flask API Endpoint" style="text;html=1;align=center;verticalAlign=middle;whiteSpace=wrap;rounded=0;" parent="1" vertex="1">
          <mxGeometry x="-30" y="-137" width="60" height="30" as="geometry" />
        </mxCell>
      </root>
    </mxGraphModel>
  </diagram>
</mxfile>
